<?xml version="1.0" standalone="no"?>
<!DOCTYPE svg PUBLIC "-//W3C//DTD SVG 20010904//EN"
 "http://www.w3.org/TR/2001/REC-SVG-20010904/DTD/svg10.dtd">
<svg version="1.0" xmlns="http://www.w3.org/2000/svg"
 width="519.000000pt" height="519.000000pt" viewBox="0 0 519.000000 519.000000"
 preserveAspectRatio="xMidYMid meet">
<metadata>
Created by potrace 1.11, written by Peter Selinger 2001-2013
</metadata>
<g transform="translate(0.000000,519.000000) scale(0.100000,-0.100000)"
fill="#000000" stroke="none">
<path d="M2587 5173 c-3 -5 -20 -8 -36 -7 -18 1 -31 -3 -31 -9 0 -8 -3 -8 -8
0 -6 9 -17 10 -38 5 -16 -5 -38 -8 -49 -8 -11 1 -23 -3 -27 -9 -5 -6 -8 -5 -8
3 0 7 -5 10 -10 7 -9 -6 -46 -10 -137 -17 -13 -1 -23 -5 -23 -8 0 -12 -30 -7
-30 4 -1 6 -8 -2 -17 -19 -12 -23 -17 -26 -22 -14 -6 17 -56 19 -81 4 -8 -5
-32 -9 -53 -10 -21 -1 -42 -7 -46 -14 -5 -7 -11 -12 -15 -11 -15 5 -96 -12
-101 -21 -4 -5 -11 -7 -16 -4 -5 4 -9 2 -9 -2 0 -5 -12 -10 -27 -11 -15 -1
-30 -8 -34 -14 -5 -7 -11 -9 -15 -5 -4 3 -14 -1 -23 -11 -18 -20 -41 -27 -41
-12 0 5 -7 7 -15 4 -8 -4 -15 -12 -15 -18 0 -7 -10 -12 -22 -11 -21 2 -39 -4
-78 -27 -15 -8 -25 -12 -72 -30 -15 -6 -25 -15 -21 -21 3 -6 1 -7 -6 -3 -6 4
-23 1 -36 -8 -13 -9 -30 -16 -38 -16 -12 0 -26 -9 -105 -67 -13 -9 -31 -18
-40 -19 -9 -2 -21 -9 -27 -16 -12 -15 -41 -34 -73 -48 -14 -6 -20 -15 -16 -22
4 -7 3 -8 -4 -4 -7 4 -12 2 -12 -3 0 -6 -3 -10 -8 -8 -15 4 -111 -78 -112 -96
0 -10 -4 -15 -10 -12 -14 9 -52 -14 -44 -27 4 -6 3 -8 -4 -4 -6 3 -17 0 -25
-8 -8 -8 -17 -12 -20 -9 -3 3 -9 -6 -13 -21 -3 -14 -11 -26 -18 -26 -17 0
-106 -96 -98 -105 4 -5 2 -6 -3 -2 -6 3 -31 -18 -55 -46 -25 -28 -63 -71 -86
-96 -35 -40 -68 -84 -109 -150 -5 -9 -14 -19 -20 -23 -5 -4 -6 -8 -2 -8 8 0
-1 -13 -35 -50 -9 -10 -14 -21 -11 -24 3 -2 -6 -17 -20 -32 -14 -15 -24 -31
-21 -36 3 -4 1 -8 -5 -8 -5 0 -8 -9 -6 -20 2 -11 0 -18 -4 -15 -5 2 -16 -6
-25 -20 -9 -14 -14 -25 -10 -25 4 0 1 -7 -6 -15 -6 -8 -8 -20 -4 -26 4 -8 3
-9 -4 -5 -8 5 -14 -7 -18 -33 -4 -23 -10 -39 -14 -36 -13 8 -40 -43 -33 -61 4
-11 2 -15 -4 -11 -6 4 -14 -4 -17 -18 -3 -13 -11 -37 -17 -52 -6 -15 -11 -30
-11 -33 -1 -3 -8 -11 -15 -18 -7 -7 -13 -19 -14 -25 -1 -21 -7 -41 -20 -72
-14 -33 -18 -47 -22 -86 -1 -15 -8 -33 -15 -41 -6 -8 -9 -18 -5 -21 3 -4 2 -7
-3 -7 -6 0 -10 -12 -9 -27 0 -16 -4 -41 -11 -58 -6 -16 -10 -38 -9 -47 2 -10
0 -18 -4 -18 -4 0 -7 -8 -7 -17 -1 -10 -4 -38 -9 -63 -4 -25 -9 -63 -11 -85
-2 -22 -6 -53 -8 -70 -3 -16 -6 -49 -7 -73 -1 -24 -6 -45 -11 -48 -4 -3 -3
-14 2 -25 6 -10 7 -19 3 -19 -5 0 -8 -29 -8 -65 0 -36 2 -65 5 -65 3 0 6 -9 6
-20 0 -11 -3 -20 -6 -20 -3 0 -6 -9 -6 -20 0 -11 3 -20 7 -20 4 0 5 -19 3 -41
-2 -23 1 -48 7 -55 9 -11 8 -14 -1 -14 -8 0 -9 -4 -3 -12 5 -7 9 -30 8 -51 -1
-20 1 -37 4 -37 3 0 7 -16 8 -36 1 -21 5 -44 9 -53 4 -9 8 -34 10 -56 4 -67 8
-95 14 -95 3 0 7 -12 8 -27 1 -15 7 -30 13 -34 7 -4 9 -11 5 -17 -6 -10 16
-94 40 -150 8 -18 12 -38 9 -43 -4 -5 -1 -9 6 -9 7 0 10 -3 6 -6 -3 -4 0 -22
8 -40 8 -19 11 -34 7 -34 -4 0 0 -6 8 -13 8 -7 17 -21 18 -32 2 -11 8 -24 13
-30 5 -5 9 -17 9 -27 0 -10 9 -26 19 -35 11 -9 18 -20 15 -25 -3 -4 1 -18 8
-30 7 -13 11 -26 11 -29 -1 -4 7 -15 17 -24 11 -10 20 -26 20 -37 0 -10 5 -18
11 -18 5 0 8 -4 5 -9 -3 -4 8 -26 24 -47 16 -21 30 -44 30 -50 0 -6 13 -28 30
-50 16 -21 30 -45 30 -51 0 -7 5 -13 10 -13 6 0 10 -7 10 -15 0 -8 5 -15 10
-15 6 0 10 -6 10 -14 0 -8 9 -18 20 -21 11 -3 20 -12 20 -19 0 -7 9 -23 19
-35 39 -45 86 -104 94 -117 17 -30 112 -124 125 -124 7 0 10 -4 7 -10 -4 -6 9
-10 32 -11 21 0 32 -3 25 -6 -6 -2 -10 -9 -6 -14 3 -5 0 -9 -6 -9 -6 0 -8 -5
-5 -10 4 -6 10 -8 15 -5 4 3 12 -1 18 -8 10 -12 12 -17 12 -38 0 -5 5 -7 10
-4 6 4 20 -5 31 -19 11 -14 27 -26 35 -26 9 0 39 -24 69 -54 29 -30 56 -52 59
-48 3 3 15 -3 26 -14 10 -10 25 -24 32 -29 56 -45 87 -64 110 -70 14 -4 36
-16 49 -28 23 -22 40 -29 72 -28 9 0 15 -4 12 -9 -6 -9 29 -32 54 -36 8 -2 17
-6 20 -11 9 -12 71 -45 71 -37 0 3 7 1 15 -6 8 -7 24 -10 35 -7 13 3 26 -2 38
-17 9 -12 26 -25 37 -29 11 -3 38 -12 60 -20 25 -10 44 -12 51 -6 8 6 13 3 17
-12 3 -11 10 -18 16 -15 5 4 12 2 16 -4 4 -6 10 -8 15 -5 4 3 24 -2 44 -10 39
-17 90 -20 82 -6 -4 5 3 7 14 4 11 -3 20 -12 20 -20 0 -9 6 -13 15 -10 8 4 17
2 20 -4 4 -5 11 -7 16 -4 5 4 9 2 9 -2 0 -5 10 -10 23 -11 67 -6 103 -10 107
-13 3 -1 14 -3 25 -3 11 -1 30 -5 43 -10 13 -4 28 -3 36 3 9 7 19 6 34 -5 12
-8 22 -13 22 -10 0 3 10 2 22 -3 13 -4 35 -5 51 0 15 4 25 4 23 0 -3 -4 8 -8
24 -8 17 0 30 4 30 9 0 14 15 9 40 -14 21 -19 24 -20 35 -5 11 15 13 15 28 -1
9 -9 17 -12 17 -6 0 6 20 10 45 9 25 0 45 2 45 5 0 3 29 5 65 4 36 0 65 3 65
9 0 5 13 7 30 4 16 -4 32 -3 34 2 3 5 17 6 31 3 14 -2 32 1 40 8 11 9 15 9 15
1 0 -7 4 -10 8 -7 11 7 68 17 109 21 17 1 37 6 44 10 6 5 22 9 33 11 51 6 163
36 193 52 11 6 23 9 26 6 3 -3 16 0 29 7 24 14 43 19 68 21 8 1 21 7 28 15 7
7 21 13 30 13 10 0 23 9 30 20 7 12 17 18 23 15 12 -8 79 14 79 26 0 5 3 8 8
8 4 -1 23 4 42 12 19 7 39 12 43 11 5 -1 7 8 5 20 -3 20 1 23 30 20 17 -1 32
3 32 9 0 5 4 8 9 4 5 -3 17 2 25 11 9 8 16 12 16 7 0 -4 4 -3 8 2 4 6 32 26
62 45 30 19 57 38 58 42 2 5 8 6 13 2 5 -3 9 -1 9 5 0 5 15 19 33 30 18 11 42
28 54 38 12 10 30 25 41 34 11 10 30 20 42 24 12 4 19 9 16 13 -3 3 8 14 25
24 17 11 33 28 36 39 3 10 11 19 17 19 18 0 142 121 138 134 -2 6 -1 8 3 4 9
-9 45 23 45 40 0 7 4 11 9 7 5 -3 12 4 16 15 3 11 11 20 17 20 6 0 9 3 6 6 -3
3 9 20 28 38 19 18 31 35 29 38 -3 3 6 13 20 22 14 9 25 21 25 28 0 6 10 20
23 32 12 12 23 29 25 37 2 7 8 16 13 17 5 2 9 9 9 15 0 7 9 18 20 25 12 7 18
17 15 22 -3 6 -1 10 5 10 6 0 9 4 6 8 -3 5 9 25 25 45 18 22 25 37 17 37 -7 0
0 11 15 25 15 14 27 32 27 40 0 7 5 15 11 17 5 2 11 10 12 18 1 8 10 26 19 39
10 13 15 29 11 34 -3 5 -2 12 3 16 14 10 34 49 34 66 0 8 5 15 12 15 6 0 8 3
5 6 -4 4 2 19 13 34 11 15 17 30 14 33 -3 3 4 23 15 45 11 21 22 51 24 66 2
15 9 31 16 35 7 5 12 11 11 15 -1 3 2 25 6 49 4 23 7 45 6 49 -1 5 2 8 7 8 5
0 12 21 16 47 5 27 10 54 12 61 1 6 4 18 6 25 1 6 6 18 10 25 5 7 7 22 6 35
-2 12 0 28 4 34 11 18 17 48 22 118 2 33 7 72 10 88 3 15 1 36 -5 47 -7 14 -6
22 4 33 11 10 12 17 4 25 -8 8 -8 15 2 27 7 8 10 15 6 15 -3 0 -1 11 3 24 7
16 5 32 -4 50 -8 14 -10 26 -5 26 5 0 7 6 5 13 -10 26 -12 108 -4 113 5 3 7
10 3 15 -3 5 -8 22 -10 37 -3 15 -10 29 -15 30 -6 3 -5 12 3 25 11 18 16 78 8
97 -1 3 -4 19 -5 35 -4 39 -13 100 -15 100 -2 0 -10 35 -14 60 -2 11 -4 20 -6
20 -1 0 -4 16 -7 35 -2 19 -8 37 -13 40 -4 3 -10 25 -12 50 -3 25 -13 62 -22
82 -10 20 -15 41 -12 47 3 5 1 15 -6 23 -7 7 -14 26 -15 42 -1 16 -9 36 -17
45 -8 9 -19 36 -26 60 -6 24 -20 52 -30 63 -10 11 -17 27 -16 36 2 9 -3 23
-11 30 -7 7 -13 22 -13 32 0 10 -5 20 -11 22 -5 2 -11 10 -12 19 -2 9 -11 28
-20 42 -10 15 -14 27 -11 27 4 0 -2 8 -12 18 -21 18 -60 91 -56 105 1 4 -5 7
-13 7 -8 0 -15 7 -15 16 0 9 -8 24 -17 33 -23 21 -43 57 -43 76 0 8 -9 19 -20
25 -11 6 -20 15 -20 21 0 15 -26 39 -34 32 -3 -4 -7 -1 -7 5 -4 32 -6 37 -16
35 -7 -2 -15 6 -18 17 -4 11 -11 20 -16 20 -5 0 -9 5 -9 11 0 16 -26 39 -35
31 -5 -4 -5 -2 -2 4 3 6 -27 44 -67 85 -122 125 -165 161 -177 153 -8 -4 -9
-3 -5 4 6 10 -4 16 -25 14 -3 -1 -12 11 -20 26 -17 32 -34 52 -46 52 -5 0 -27
16 -48 36 -22 20 -60 48 -85 62 -25 14 -46 30 -48 34 -2 4 -12 8 -22 8 -10 0
-32 14 -50 30 -27 26 -35 28 -48 18 -9 -7 -13 -8 -11 -3 3 6 -2 18 -12 27 -12
12 -19 13 -22 5 -3 -7 -9 -1 -15 13 -5 14 -11 23 -13 21 -6 -6 -53 10 -60 21
-3 5 -12 10 -20 11 -8 2 -20 6 -26 10 -7 5 -13 5 -13 2 0 -4 -16 3 -35 15 -19
12 -38 19 -43 16 -5 -3 -14 4 -22 14 -8 10 -17 17 -22 14 -4 -3 -8 -1 -8 4 0
10 -41 25 -70 26 -9 1 -29 9 -44 20 -16 10 -25 12 -21 5 6 -8 4 -10 -6 -3 -8
4 -25 9 -37 10 -13 0 -27 6 -31 13 -4 6 -17 13 -28 15 -11 3 -37 9 -56 14 -20
6 -38 7 -41 4 -3 -3 -6 -1 -6 5 0 5 -6 10 -12 10 -7 0 -26 4 -43 7 -16 4 -37
8 -45 10 -8 2 -21 -2 -29 -8 -11 -8 -13 -8 -8 0 4 8 -1 12 -16 12 -12 0 -33 3
-47 5 -79 16 -100 19 -145 23 -27 3 -71 6 -96 8 -25 1 -51 6 -57 9 -6 4 -18 0
-27 -9 -13 -14 -20 -14 -48 -3 -18 7 -35 17 -38 22 -4 6 -9 5 -12 0z"/>
</g>
</svg>
